<?xml version="1.0" encoding="utf-8"?>
<!-- Generator: Adobe Illustrator 25.2.0, SVG Export Plug-In . SVG Version: 6.00 Build 0)  -->
<svg version="1.1" id="Calque_1" xmlns="http://www.w3.org/2000/svg" xmlns:xlink="http://www.w3.org/1999/xlink" x="0px" y="0px"
	 viewBox="0 0 1697.3 287" style="enable-background:new 0 0 1697.3 287;" xml:space="preserve">
<style type="text/css">
	.st0{fill:#FFFA0A;}
	.st1{fill:#FFFFFF;}
</style>
<path class="st0" d="M41.8,143.5C41.8,64.2,106.1,0,185.4,0c56.5,0,105.3,32.6,128.8,80.1l-148.5,63.4l148.5,63.4h0
	c-23.4,47.5-72.3,80.1-128.8,80.1C106.1,287,41.8,222.8,41.8,143.5z"/>
<g>
	<circle class="st1" cx="340.5" cy="143.5" r="26.4"/>
</g>
<g>
	<circle class="st1" cx="500.1" cy="143.5" r="26.4"/>
</g>
<g>
	<circle class="st1" cx="659.6" cy="143.5" r="26.4"/>
</g>
<g>
	<circle class="st1" cx="819.1" cy="143.5" r="26.4"/>
</g>
<g>
	<circle class="st1" cx="978.7" cy="143.5" r="26.4"/>
</g>
<g>
	<circle class="st1" cx="1138.2" cy="143.5" r="26.4"/>
</g>
<g>
	<circle class="st1" cx="1297.7" cy="143.5" r="26.4"/>
</g>
<g>
	<circle class="st1" cx="1457.3" cy="143.5" r="26.4"/>
</g>
<g>
	<circle class="st1" cx="1616.8" cy="143.5" r="26.4"/>
</g>
</svg>
